<mxfile host="app.diagrams.net" modified="2021-12-14T17:37:08.912Z" agent="5.0 (Windows NT 10.0; Win64; x64) AppleWebKit/537.36 (KHTML, like Gecko) Chrome/96.0.4664.45 Safari/537.36" etag="sVs24RIMoN0Je9PX64TM" version="15.9.3" type="github">
  <diagram id="fZTekUbNJeGkzExj0lqy" name="Page-1">
    <mxGraphModel dx="1774" dy="513" grid="1" gridSize="10" guides="1" tooltips="1" connect="1" arrows="1" fold="1" page="1" pageScale="1" pageWidth="850" pageHeight="1100" math="0" shadow="0">
      <root>
        <mxCell id="0" />
        <mxCell id="1" parent="0" />
        <mxCell id="WfuJa5BsANE-gXTV773s-1" value="RetryControllerListern.MQ Listner.onMessage" style="rounded=1;whiteSpace=wrap;html=1;fillColor=#d5e8d4;strokeColor=#82b366;" vertex="1" parent="1">
          <mxGeometry x="60" y="170" width="220" height="60" as="geometry" />
        </mxCell>
        <mxCell id="WfuJa5BsANE-gXTV773s-2" value="@Transactional/Spring.framework" style="rounded=0;html=1;fillColor=#e1d5e7;strokeColor=#9673a6;whiteSpace=wrap;" vertex="1" parent="1">
          <mxGeometry x="60" y="230" width="220" height="70" as="geometry" />
        </mxCell>
        <mxCell id="WfuJa5BsANE-gXTV773s-3" value="&lt;ul&gt;&lt;li&gt;archiveUtil.message to File System&lt;/li&gt;&lt;li&gt;check Poison Messsage and validatation&lt;/li&gt;&lt;ul&gt;&lt;li&gt;RetrydaoService.logMessage.&lt;/li&gt;&lt;li&gt;webService.performRetryControlelrServiceMDB.invokeESB&lt;/li&gt;&lt;li&gt;message.sendMessage to Batch Queue&lt;/li&gt;&lt;/ul&gt;&lt;li&gt;handle poison message.jmsSender.sendMsg&lt;/li&gt;&lt;/ul&gt;" style="rounded=1;whiteSpace=wrap;html=1;align=left;verticalAlign=middle;fillColor=#dae8fc;strokeColor=#6c8ebf;" vertex="1" parent="1">
          <mxGeometry x="280" y="120" width="400" height="190" as="geometry" />
        </mxCell>
        <mxCell id="WfuJa5BsANE-gXTV773s-4" value="atomikos.icatch.jta.transactionImp/AtomikosDataSourceBean&lt;br&gt;connection" style="rounded=0;html=1;fillColor=#1ba1e2;strokeColor=#006EAF;align=center;whiteSpace=wrap;fontColor=#ffffff;" vertex="1" parent="1">
          <mxGeometry x="-220" y="580" width="330" height="70" as="geometry" />
        </mxCell>
        <mxCell id="WfuJa5BsANE-gXTV773s-5" value="spring.transaction: Connection.statement/No atomikosDataSource" style="rounded=0;html=1;fillColor=#e1d5e7;strokeColor=#9673a6;whiteSpace=wrap;" vertex="1" parent="1">
          <mxGeometry x="160" y="580" width="330" height="70" as="geometry" />
        </mxCell>
        <mxCell id="WfuJa5BsANE-gXTV773s-6" value="spring.transaction.jpa/InventoryRepository/Spring@Trasactional" style="rounded=0;html=1;fillColor=#60a917;strokeColor=#2D7600;whiteSpace=wrap;fontColor=#ffffff;" vertex="1" parent="1">
          <mxGeometry x="160" y="510" width="700" height="70" as="geometry" />
        </mxCell>
        <mxCell id="WfuJa5BsANE-gXTV773s-7" value="spring.transaction" style="rounded=0;html=1;fillColor=#1ba1e2;strokeColor=#006EAF;align=center;whiteSpace=wrap;fontColor=#ffffff;" vertex="1" parent="1">
          <mxGeometry x="160" y="650" width="330" height="70" as="geometry" />
        </mxCell>
        <mxCell id="WfuJa5BsANE-gXTV773s-8" value="direct.Atomikos.icatch.jta. UserTransactionImp.utx.begin" style="rounded=0;html=1;fillColor=#60a917;strokeColor=#2D7600;align=center;whiteSpace=wrap;fontColor=#ffffff;" vertex="1" parent="1">
          <mxGeometry x="-240" y="650" width="370" height="70" as="geometry" />
        </mxCell>
        <mxCell id="WfuJa5BsANE-gXTV773s-9" value="Hibernate3.TransactionManager" style="rounded=0;html=1;fillColor=#60a917;strokeColor=#2D7600;whiteSpace=wrap;fontColor=#ffffff;" vertex="1" parent="1">
          <mxGeometry x="650" y="440" width="210" height="70" as="geometry" />
        </mxCell>
        <mxCell id="WfuJa5BsANE-gXTV773s-10" value="atomico.icatch.jta.UserTransactionManager.jtaTransactionManager/config.java" style="rounded=0;html=1;fillColor=#60a917;strokeColor=#2D7600;whiteSpace=wrap;fontColor=#ffffff;" vertex="1" parent="1">
          <mxGeometry x="160" y="440" width="470" height="70" as="geometry" />
        </mxCell>
        <mxCell id="WfuJa5BsANE-gXTV773s-11" value="InventoryRepository" style="rounded=0;html=1;fillColor=#60a917;strokeColor=#2D7600;whiteSpace=wrap;fontColor=#ffffff;" vertex="1" parent="1">
          <mxGeometry x="650" y="360" width="210" height="70" as="geometry" />
        </mxCell>
        <mxCell id="WfuJa5BsANE-gXTV773s-12" value="&lt;div style=&quot;color: rgb(212, 212, 212); background-color: rgb(30, 30, 30); font-family: consolas, &amp;quot;courier new&amp;quot;, monospace; font-weight: normal; font-size: 14px; line-height: 19px;&quot;&gt;&lt;div&gt;&lt;span style=&quot;color: #4ec9b0&quot;&gt;MessageDrivenContainer&lt;/span&gt;&lt;/div&gt;&lt;/div&gt;" style="text;whiteSpace=wrap;html=1;" vertex="1" parent="1">
          <mxGeometry x="180" y="860" width="190" height="30" as="geometry" />
        </mxCell>
        <mxCell id="WfuJa5BsANE-gXTV773s-13" value="&lt;div style=&quot;color: rgb(212, 212, 212); background-color: rgb(30, 30, 30); font-family: consolas, &amp;quot;courier new&amp;quot;, monospace; font-weight: normal; font-size: 14px; line-height: 19px;&quot;&gt;&lt;div&gt;&lt;span style=&quot;color: #dcdcaa&quot;&gt;atomikosConnectionFactoryBean&lt;/span&gt;&lt;/div&gt;&lt;/div&gt;" style="text;whiteSpace=wrap;html=1;" vertex="1" parent="1">
          <mxGeometry x="180" y="880" width="250" height="30" as="geometry" />
        </mxCell>
        <mxCell id="WfuJa5BsANE-gXTV773s-14" value="&lt;div style=&quot;color: rgb(212, 212, 212); background-color: rgb(30, 30, 30); font-family: consolas, &amp;quot;courier new&amp;quot;, monospace; font-weight: normal; font-size: 14px; line-height: 19px;&quot;&gt;&lt;div&gt;&lt;span style=&quot;color: #4ec9b0&quot;&gt;ActiveMQXAConnectionFactory&lt;/span&gt;&lt;span style=&quot;color: #d4d4d4&quot;&gt;(&lt;/span&gt;&lt;span style=&quot;color: #ce9178&quot;&gt;&quot;vm://localhost&quot;&lt;/span&gt;&lt;span style=&quot;color: #d4d4d4&quot;&gt;)&lt;/span&gt;&lt;/div&gt;&lt;/div&gt;" style="text;whiteSpace=wrap;html=1;" vertex="1" parent="1">
          <mxGeometry x="180" y="910" width="370" height="30" as="geometry" />
        </mxCell>
        <mxCell id="WfuJa5BsANE-gXTV773s-15" value="&lt;div style=&quot;color: rgb(212, 212, 212); background-color: rgb(30, 30, 30); font-family: consolas, &amp;quot;courier new&amp;quot;, monospace; font-weight: normal; font-size: 14px; line-height: 19px;&quot;&gt;&lt;div&gt;&lt;span style=&quot;color: #4ec9b0&quot;&gt;QueueSender&lt;/span&gt;&lt;/div&gt;&lt;/div&gt;" style="text;whiteSpace=wrap;html=1;" vertex="1" parent="1">
          <mxGeometry x="180" y="810" width="110" height="30" as="geometry" />
        </mxCell>
        <mxCell id="WfuJa5BsANE-gXTV773s-16" value="&lt;div style=&quot;color: rgb(212, 212, 212); background-color: rgb(30, 30, 30); font-family: consolas, &amp;quot;courier new&amp;quot;, monospace; font-weight: normal; font-size: 14px; line-height: 19px;&quot;&gt;&lt;div&gt;&lt;span style=&quot;color: #d4d4d4&quot;&gt;pool&lt;/span&gt;&lt;/div&gt;&lt;/div&gt;" style="text;whiteSpace=wrap;html=1;" vertex="1" parent="1">
          <mxGeometry x="190" y="840" width="60" height="30" as="geometry" />
        </mxCell>
      </root>
    </mxGraphModel>
  </diagram>
</mxfile>
